<?xml version="1.0" encoding="UTF-8" standalone="no"?>
<!-- Created with Inkscape (http://www.inkscape.org/) -->

<svg
   version="1.1"
   id="svg1"
   width="1365.3333"
   height="1365.3333"
   viewBox="0 0 1365.3333 1365.3333"
   sodipodi:docname="Cursor.png"
   xmlns:inkscape="http://www.inkscape.org/namespaces/inkscape"
   xmlns:sodipodi="http://sodipodi.sourceforge.net/DTD/sodipodi-0.dtd"
   xmlns="http://www.w3.org/2000/svg"
   xmlns:svg="http://www.w3.org/2000/svg">
  <defs
     id="defs1" />
  <sodipodi:namedview
     id="namedview1"
     pagecolor="#ffffff"
     bordercolor="#000000"
     borderopacity="0.25"
     inkscape:showpageshadow="2"
     inkscape:pageopacity="0.0"
     inkscape:pagecheckerboard="0"
     inkscape:deskcolor="#d1d1d1">
    <inkscape:page
       x="0"
       y="0"
       width="1365.3333"
       height="1365.3333"
       id="page2"
       margin="0"
       bleed="0" />
  </sodipodi:namedview>
  <g
     inkscape:groupmode="layer"
     inkscape:label="Image"
     id="g1">
    <g
       id="g2">
      <path
         style="fill:#f9c7a6"
         d="m 767.99995,895.99995 h -85.33332 v -21.33334 -21.33333 h -64 -64 v -21.33333 -21.33333 h -42.66666 -42.66666 v -21.33333 -21.33334 h -21.33334 -21.33333 v -63.99999 -64 H 405.33331 383.99998 V 618.66663 597.3333 H 362.66665 341.33331 V 575.99997 554.66663 H 319.99998 298.66665 V 511.99997 469.33331 H 277.33332 255.99998 V 447.99997 426.66664 H 234.66665 213.33332 V 405.33331 383.99998 H 191.99999 170.66666 V 362.66665 341.33331 H 149.33332 127.99999 V 319.99998 298.66665 H 106.66666 85.333328 v -64 -63.99999 h 63.999992 64 v 21.33333 21.33333 h 21.33333 21.33333 v 21.33333 21.33333 h 21.33334 21.33333 v 21.33334 21.33333 h 21.33333 21.33333 v 21.33333 21.33333 h 21.33334 21.33333 v -21.33333 -21.33333 h 85.33333 85.33332 v 21.33333 21.33333 h 21.33334 21.33333 v -21.33333 -21.33333 h 63.99999 64 v 21.33333 21.33333 h 42.66666 42.66667 v 21.33334 21.33333 h 21.33333 21.33333 v 21.33333 21.33333 h 21.33333 21.33334 v 21.33333 21.33334 h 21.33333 21.33333 v 21.33333 21.33333 h 21.33333 21.33333 v 42.66666 42.66667 h 21.33333 21.3333 v 42.66666 42.66667 h 21.3334 21.3333 v 42.66666 42.66666 h -42.6667 -42.66663 v 21.33334 21.33333 h -42.66666 -42.66666 v 21.33333 21.33333 h -21.33334 -21.33333 v 21.33333 21.33334 z M 533.3333,511.99997 h 21.33333 V 490.66664 469.33331 H 533.3333 511.99997 v -21.33334 -21.33333 h -21.33333 -21.33333 v -21.33333 -21.33333 h -21.33334 -21.33333 v -21.33333 -21.33334 h -21.33333 -21.33333 v 21.33334 21.33333 h 21.33333 21.33333 v 21.33333 21.33333 h 21.33333 21.33334 v 21.33333 21.33334 h 21.33333 21.33333 v 21.33333 21.33333 z m 127.99999,-85.33333 h 21.33334 V 405.33331 383.99998 H 661.33329 639.99996 V 362.66665 341.33331 H 618.66663 597.3333 v 21.33334 21.33333 h 21.33333 21.33333 v 21.33333 21.33333 z"
         id="path6" />
      <path
         style="fill:#d1936c"
         d="m 703.99996,1023.9999 h -21.33333 v -21.3333 -21.33333 H 597.3333 511.99997 v -21.33333 -21.33333 h -85.33333 -85.33333 v -21.33333 -21.33333 h -42.66666 -42.66667 v -21.33334 -21.33333 h -21.33333 -21.33333 v -85.33333 -85.33332 h 21.33333 21.33333 v -21.33334 -21.33333 h 21.33334 21.33333 V 618.66663 597.3333 h 42.66666 42.66667 v 21.33333 21.33333 h 21.33333 21.33333 v 64 63.99999 h 21.33333 21.33334 v 21.33334 21.33333 h 42.66666 42.66666 v 21.33333 21.33333 h 64 64 v 21.33333 21.33334 h 63.99999 64 v 21.33333 21.33333 h -21.33333 -21.33334 v 21.33333 21.33333 h -21.33333 -21.33333 v 21.33333 21.3333 z M 533.3333,511.99997 h -21.33333 v -21.33333 -21.33333 h -21.33333 -21.33333 v -21.33334 -21.33333 h -21.33334 -21.33333 v -21.33333 -21.33333 h -21.33333 -21.33333 v -21.33333 -21.33334 h 21.33333 21.33333 v 21.33334 21.33333 h 21.33333 21.33334 v 21.33333 21.33333 h 21.33333 21.33333 v 21.33333 21.33334 h 21.33333 21.33333 v 21.33333 21.33333 z M 661.33329,426.66664 H 639.99996 V 405.33331 383.99998 H 618.66663 597.3333 v -21.33333 -21.33334 h 21.33333 21.33333 v 21.33334 21.33333 h 21.33333 21.33334 v 21.33333 21.33333 z"
         id="path5" />
      <path
         style="fill:#32312f"
         d="m 1002.6666,1109.3333 h -21.33333 v -42.6667 -42.6667 h -21.33333 -21.33333 v -42.66663 -42.66666 h -21.33333 -21.33333 v -21.33333 -21.33333 h -21.33334 -21.33333 v -21.33334 -21.33333 h 21.33333 21.33334 v -21.33333 -21.33333 h 42.66666 42.66666 v -21.33333 -21.33334 h 64.00003 64 v 21.33334 21.33333 h 21.3333 21.3333 v 21.33333 21.33333 h 21.3334 21.3333 v 21.33333 21.33334 h 21.3333 21.3334 v 21.33333 21.33333 h 21.3333 21.3333 v 21.33333 21.33333 h -64 -64 v 21.33333 21.3333 h -42.6666 -42.6667 v 21.3334 21.3333 h -21.3333 -21.3334 v 21.3333 21.3334 z"
         id="path4" />
      <path
         style="fill:#201f1f"
         d="m 981.33327,1279.9999 h -85.33332 v -21.3333 -21.3333 h -21.33334 -21.33333 v -21.3334 -21.3333 h -21.33333 -21.33333 v -21.3333 -21.3334 h -21.33333 -21.33334 v -21.3333 -21.3333 h -21.33333 -21.33333 v -21.3334 -21.3333 h -21.33333 -21.33333 v -21.3333 -21.3334 h 21.33333 21.33333 v -21.3333 -21.33333 h 21.33333 21.33333 v -21.33333 -21.33333 h 21.33334 21.33333 v -21.33333 -21.33333 h 42.66666 42.66667 v 21.33333 21.33333 h 21.33333 21.33333 v 42.66666 42.66663 h 21.33333 21.33333 v 42.6667 42.6667 h 21.33333 21.3333 v -21.3334 -21.3333 h 21.3334 21.3333 v -21.3333 -21.3334 h 42.6667 42.6666 v -21.3333 -21.33333 h 64 64 v 64.00003 64 h -21.3333 -21.3333 v 21.3333 21.3333 h -21.3334 -21.3333 v 21.3334 21.3333 h -21.3333 -21.3334 v 21.3333 21.3334 h -42.6666 -42.6667 v 21.3333 21.3333 z m 0,-42.6666 h 42.66663 v -21.3334 -21.3333 h 42.6667 42.6667 v -21.3333 -21.3334 h 21.3333 21.3333 v -21.3333 -21.3333 h 21.3334 21.3333 v -21.3334 -21.3333 h 21.3333 21.3334 v -21.3333 -21.3334 h -42.6667 -42.6667 v 21.3334 21.3333 h -42.6666 -42.6667 v 21.3333 21.3334 h -21.3333 -21.3334 v 21.3333 21.3333 h -21.3333 -21.33333 v 21.3334 21.3333 h -21.33333 -21.33333 v 21.3333 21.3334 z"
         id="path3" />
      <path
         style="fill:#000000"
         d="m 981.33327,1322.6666 h -85.33332 v -21.3333 -21.3334 h -21.33334 -21.33333 v -21.3333 -21.3333 h -21.33333 -21.33333 v -21.3334 -21.3333 h -21.33333 -21.33334 v -21.3333 -21.3334 h -21.33333 -21.33333 v -21.3333 -21.3333 h -21.33333 -21.33333 v -21.3334 -21.3333 h -21.33334 -21.33333 v -21.3333 -21.3334 h -63.99999 -64 v -21.3333 -21.33333 h -85.33333 -85.33333 v -21.33333 -21.33333 h -42.66666 -42.66667 v -21.33333 -21.33333 h -21.33333 -21.33333 v -21.33334 -21.33333 h -21.33333 -21.33333 v -85.33333 -85.33332 h 21.33333 21.33333 v -21.33334 -21.33333 h 21.33333 21.33333 V 618.66663 597.3333 h 21.33334 21.33333 V 575.99997 554.66663 H 277.33332 255.99998 V 511.99997 469.33331 H 234.66665 213.33332 V 447.99997 426.66664 H 191.99999 170.66666 V 405.33331 383.99998 H 149.33332 127.99999 V 362.66665 341.33331 H 106.66666 85.333328 V 319.99998 298.66665 H 63.999996 42.666664 v -64 -63.99999 h 21.333332 21.333332 v -21.33334 -21.33333 h 63.999992 64 v 21.33333 21.33334 h 21.33333 21.33333 v 21.33333 21.33333 h 21.33334 21.33333 v 21.33333 21.33333 h 21.33333 21.33333 v 21.33334 21.33333 h 21.33334 21.33333 v -21.33333 -21.33334 h 85.33333 85.33332 v 21.33334 21.33333 h 21.33334 21.33333 v -21.33333 -21.33334 h 63.99999 64 v 21.33334 21.33333 h 42.66666 42.66667 v 21.33333 21.33333 h 21.33333 21.33333 v 21.33334 21.33333 h 21.33333 21.33334 v 21.33333 21.33333 h 21.33333 21.33333 v 21.33333 21.33334 h 21.33333 21.33333 v 21.33333 21.33333 h 21.33333 21.3333 v 42.66666 42.66667 h 21.3334 21.3333 v 42.66666 42.66667 h 21.3333 21.3334 v 42.66666 42.66666 h 21.3333 21.3333 v 21.33334 21.33333 h 21.3334 21.3333 v 21.33333 21.33333 h 21.3333 21.3334 v 21.33333 21.33334 h 21.3333 21.3333 v 21.33333 21.33333 h 21.3334 21.3333 v 85.33329 85.3334 h -21.3333 -21.3334 v 21.3333 21.3333 h -21.3333 -21.3333 v 21.3334 21.3333 h -21.3334 -21.3333 v 21.3333 21.3334 h -21.3333 -21.3334 v 21.3333 21.3333 h -42.6666 -42.6667 v 21.3334 21.3333 z m 0,-42.6667 h 85.33333 v -21.3333 -21.3333 h 42.6667 42.6666 v -21.3334 -21.3333 h 21.3334 21.3333 v -21.3333 -21.3334 h 21.3333 21.3334 v -21.3333 -21.3333 h 21.3333 21.3333 v -85.3334 -85.33329 h -21.3333 -21.3333 v -21.33333 -21.33333 h -21.3334 -21.3333 v -21.33334 -21.33333 h -21.3333 -21.3334 v -21.33333 -21.33333 h -21.3333 -21.3333 v -21.33333 -21.33334 h -21.3334 -21.3333 v -42.66666 -42.66666 h -21.3333 -21.3334 V 639.99996 597.3333 h -21.3333 -21.33333 v -42.66667 -42.66666 h -21.33333 -21.33333 v -21.33333 -21.33333 h -21.33333 -21.33333 v -21.33334 -21.33333 h -21.33334 -21.33333 v -21.33333 -21.33333 h -21.33333 -21.33333 v -21.33333 -21.33334 h -42.66667 -42.66666 v -21.33333 -21.33333 h -64 -63.99999 v 21.33333 21.33333 h -21.33333 -21.33334 v -21.33333 -21.33333 h -85.33332 -85.33333 v 21.33333 21.33333 h -21.33333 -21.33334 v -21.33333 -21.33333 h -21.33333 -21.33333 v -21.33333 -21.33334 h -21.33333 -21.33334 v -21.33333 -21.33333 h -21.33333 -21.33333 v -21.33333 -21.33333 h -64 -63.999992 v 63.99999 64 h 21.333332 21.33333 v 21.33333 21.33333 h 21.33333 21.33334 v 21.33334 21.33333 h 21.33333 21.33333 v 21.33333 21.33333 h 21.33333 21.33333 v 21.33333 21.33334 h 21.33334 21.33333 v 42.66666 42.66666 h 21.33333 21.33333 v 21.33334 21.33333 h -21.33333 -21.33333 v 21.33333 21.33333 h -21.33333 -21.33334 v 21.33333 21.33334 h -21.33333 -21.33333 v 85.33332 85.33333 h 21.33333 21.33333 v 21.33333 21.33334 h 42.66667 42.66666 v 21.33333 21.33333 h 85.33333 85.33333 v 21.33333 21.33333 h 85.33333 85.33333 v 42.66663 42.6667 h 21.33333 21.33333 v 21.3333 21.3334 h 21.33333 21.33333 v 21.3333 21.3333 h 21.33334 21.33333 v 21.3334 21.3333 h 21.33333 21.33333 v 21.3333 21.3334 h 21.33333 21.33334 v 21.3333 21.3333 z m 0,-42.6666 h -42.66666 v -21.3334 -21.3333 h 21.33333 21.33333 v -21.3333 -21.3334 h 21.33333 21.3333 v -21.3333 -21.3333 h 21.3334 21.3333 v -21.3334 -21.3333 h 42.6667 42.6666 v -21.3333 -21.3334 h 42.6667 42.6667 v 21.3334 21.3333 h -21.3334 -21.3333 v 21.3333 21.3334 h -21.3333 -21.3334 v 21.3333 21.3333 h -21.3333 -21.3333 v 21.3334 21.3333 h -42.6667 -42.6667 v 21.3333 21.3334 z"
         id="path2" />
    </g>
  </g>
</svg>
